<svg id="avatar" width="24" height="24" viewBox="0 0 24 24" fill="none" xmlns="http://www.w3.org/2000/svg">
<path d="M0 12C0 5.37258 5.37258 0 12 0V0C18.6274 0 24 5.37258 24 12V12C24 18.6274 18.6274 24 12 24V24C5.37258 24 0 18.6274 0 12V12Z" fill="#49454F"/>
<path fill-rule="evenodd" clip-rule="evenodd" d="M15.5999 9.6C15.5999 11.5882 13.9881 13.2 11.9999 13.2C10.0117 13.2 8.3999 11.5882 8.3999 9.6C8.3999 7.61177 10.0117 6 11.9999 6C13.9881 6 15.5999 7.61177 15.5999 9.6ZM14.3999 9.6C14.3999 10.9255 13.3254 12 11.9999 12C10.6744 12 9.5999 10.9255 9.5999 9.6C9.5999 8.27452 10.6744 7.2 11.9999 7.2C13.3254 7.2 14.3999 8.27452 14.3999 9.6Z" fill="white"/>
<path d="M11.9999 15C8.11527 15 4.80547 17.297 3.54468 20.5152C3.85181 20.8202 4.17536 21.1087 4.51387 21.3792C5.45272 18.4246 8.39793 16.2 11.9999 16.2C15.6019 16.2 18.5471 18.4246 19.4859 21.3792C19.8244 21.1087 20.148 20.8202 20.4551 20.5152C19.1943 17.2971 15.8845 15 11.9999 15Z" fill="white"/>
</svg>
